# xmcd CD database file
#
# Track frame offsets:
#	150
#	11239
#	25344
#	40168
#	54133
#	68843
#	86507
#	99806
#	110623
#	137972
#	151024
#	164489
#	176088
#	189911
#
# Disc length: 2683 seconds
#
# Revision: 0
# Processed by: cddbd v1.5.2PL0 Copyright (c) Steve Scherf et al.
# Submitted via: CDex 1.51
#
DISCID=ac0a790e
DTITLE=Sentimental Journey - Disc 2
DYEAR=2007
DGENRE=Jazz
TTITLE0=Stompin' At The Savoy
TTITLE1=Cuddle Up A Little Closer
TTITLE2=Careless Love
TTITLE3=When The Saints Go Marching In
TTITLE4=Solitude
TTITLE5=Mood Indigo
TTITLE6=We'll Git It
TTITLE7=Swing Low, Sweet Chariot
TTITLE8=Two O'Clock Jump
TTITLE9=Ciribiribin
TTITLE10=Chattanooga Choo Choo
TTITLE11=Lover's Serenade
TTITLE12=String Of Pearls
TTITLE13=Martha
EXTD=YEAR: 2007
EXTT0=
EXTT1=
EXTT2=
EXTT3=
EXTT4=
EXTT5=
EXTT6=
EXTT7=
EXTT8=
EXTT9=
EXTT10=
EXTT11=
EXTT12=
EXTT13=
PLAYORDER=
